# xmcd
#
# Track frame offsets:
#	150
#	16493
#	34753
#	56159
#	76835
#	98235
#
# Disc length: 1560 seconds
#
# Revision: 0
# Processed by: cddbd v1.5.2PL0 Copyright (c) Steve Scherf et al.
# Submitted via: dBpowerAMP V4.0
#
DISCID=42061606
DTITLE=Jimi Nelson And The Drifting Cowboys - Do Drop In
DYEAR=2009
DGENRE=Country
TTITLE0=Baby Come Home
TTITLE1=100 Tears
TTITLE2=Blue
TTITLE3=Do Drop In
TTITLE4=Purple Rain
TTITLE5=Who Needs You
EXTD=
EXTT0=
EXTT1=
EXTT2=
EXTT3=
EXTT4=
EXTT5=
PLAYORDER=
